<svg width="1280" height="720" viewBox="0 0 1280 720" fill="none" xmlns="http://www.w3.org/2000/svg">
<ellipse cx="468" cy="179" rx="669" ry="277" fill="url(#paint0_linear_5539_16316)"/>
<path d="M756.891 799.56V734.014H799.284V752.2H813.603V664.462H876.93V746.982H890.859V732.731H929.772V748.696H939.719V648.737L977.587 624V799.56H756.891Z" fill="#B4BFF7" fill-opacity="0.2"/>
<path d="M851.102 671.593H867.24V676.772H851.102V671.593Z" fill="#E6E9F7"/>
<path d="M822.437 671.593H839.414V676.772H822.437V671.593Z" fill="#E6E9F7"/>
<path d="M851.102 681.554H867.239V686.733H851.102V681.554Z" fill="#E6E9F7"/>
<path d="M822.437 681.554H839.414V686.733H822.437V681.554Z" fill="#E6E9F7"/>
<path d="M851.102 691.515H867.239V696.695H851.102V691.515Z" fill="#E6E9F7"/>
<path d="M822.437 691.515H839.414V696.695H822.437V691.515Z" fill="#E6E9F7"/>
<path d="M851.102 701.475H867.239V706.655H851.102V701.475Z" fill="#E6E9F7"/>
<path d="M822.437 701.475H839.414V706.655H822.437V701.475Z" fill="#E6E9F7"/>
<path d="M851.102 711.436H867.239V716.616H851.102V711.436Z" fill="#E6E9F7"/>
<path d="M822.437 711.436H839.414V716.616H822.437V711.436Z" fill="#E6E9F7"/>
<path d="M857.587 799.56V734.014H815.195V752.2H800.875V664.462H737.548V746.982H723.619V732.731H684.707V748.696H674.759V648.737L636.891 624V799.56H857.587Z" fill="#B4BFF7" fill-opacity="0.2"/>
<path d="M763.376 671.593H747.239V676.772H763.376V671.593Z" fill="#E6E9F7"/>
<path d="M792.042 671.593H775.064V676.772H792.042V671.593Z" fill="#E6E9F7"/>
<path d="M763.376 681.554H747.239V686.733H763.376V681.554Z" fill="#E6E9F7"/>
<path d="M792.042 681.554H775.064V686.733H792.042V681.554Z" fill="#E6E9F7"/>
<path d="M763.376 691.515H747.239V696.695H763.376V691.515Z" fill="#E6E9F7"/>
<path d="M792.042 691.515H775.064V696.695H792.042V691.515Z" fill="#E6E9F7"/>
<path d="M763.376 701.475H747.239V706.655H763.376V701.475Z" fill="#E6E9F7"/>
<path d="M792.042 701.475H775.064V706.655H792.042V701.475Z" fill="#E6E9F7"/>
<path d="M763.376 711.436H747.239V716.616H763.376V711.436Z" fill="#E6E9F7"/>
<path d="M792.042 711.436H775.064V716.616H792.042V711.436Z" fill="#E6E9F7"/>
<path d="M657.587 799.56V734.014H615.195V752.2H600.875V664.462H537.548V746.982H523.619V732.731H484.707V748.696H474.759V648.737L436.891 624V799.56H657.587Z" fill="#B4BFF7" fill-opacity="0.2"/>
<path d="M563.376 671.593H547.239V676.772H563.376V671.593Z" fill="#E6E9F7"/>
<path d="M592.042 671.593H575.064V676.772H592.042V671.593Z" fill="#E6E9F7"/>
<path d="M563.376 681.554H547.239V686.733H563.376V681.554Z" fill="#E6E9F7"/>
<path d="M592.042 681.554H575.064V686.733H592.042V681.554Z" fill="#E6E9F7"/>
<path d="M563.376 691.515H547.239V696.695H563.376V691.515Z" fill="#E6E9F7"/>
<path d="M592.042 691.515H575.064V696.695H592.042V691.515Z" fill="#E6E9F7"/>
<path d="M563.376 701.475H547.239V706.655H563.376V701.475Z" fill="#E6E9F7"/>
<path d="M592.042 701.475H575.064V706.655H592.042V701.475Z" fill="#E6E9F7"/>
<path d="M563.376 711.436H547.239V716.616H563.376V711.436Z" fill="#E6E9F7"/>
<path d="M592.042 711.436H575.064V716.616H592.042V711.436Z" fill="#E6E9F7"/>
<path opacity="0.53" d="M660.859 581.599C661.855 579.581 662.43 577.315 662.43 574.911C662.43 566.544 655.647 559.761 647.279 559.761C645.053 559.761 642.945 560.254 641.04 561.117C637.643 553.537 630.038 548.254 621.195 548.254C612.147 548.254 604.392 553.782 601.117 561.643C598.949 560.447 596.459 559.761 593.808 559.761C585.44 559.761 578.657 566.544 578.657 574.911C578.657 577.315 579.232 579.58 580.229 581.599H660.859Z" fill="white"/>
<path opacity="0.53" d="M781.922 405.533C783.824 401.68 784.921 397.358 784.921 392.77C784.921 376.803 771.978 363.859 756.01 363.859C751.761 363.859 747.738 364.799 744.104 366.446C737.622 351.983 723.109 341.9 706.234 341.9C688.968 341.9 674.17 352.449 667.922 367.45C663.784 365.166 659.034 363.859 653.973 363.859C638.006 363.859 625.063 376.802 625.063 392.77C625.063 397.357 626.16 401.68 628.062 405.533H781.922Z" fill="white"/>
<path d="M425.587 752.361V686.816H383.195V705.002H368.875V617.263H305.548V699.784H291.619V685.532H252.707V701.498H242.759V601.538L204.891 576.802V752.361H425.587Z" fill="#B4BFF7" fill-opacity="0.2"/>
<path d="M229.195 752.361V696.887H213.449V710.688H190.856V676.069H173.398L157.311 652.121V689.948H140.195V735.113H128.899V648.698L106.649 624.394V717.627L101.218 712.196V686.617H79.9493V669.13H54.2752V712.492H36.8176V684.812H14.2253V705.63H-6V752.361H229.195Z" fill="#CDD4F7"/>
<path d="M263.107 687.828H258.655V700.786H263.107V687.828Z" fill="#E6E9F7"/>
<path d="M274.609 687.828H270.156V700.786H274.609V687.828Z" fill="#E6E9F7"/>
<path d="M286.11 687.828H281.658V700.786H286.11V687.828Z" fill="#E6E9F7"/>
<path d="M263.107 703.969H258.655V716.927H263.107V703.969Z" fill="#E6E9F7"/>
<path d="M274.609 703.969H270.156V716.927H274.609V703.969Z" fill="#E6E9F7"/>
<path d="M286.11 703.969H281.658V716.927H286.11V703.969Z" fill="#E6E9F7"/>
<path d="M331.376 624.394H315.239V629.574H331.376V624.394Z" fill="#E6E9F7"/>
<path d="M360.042 624.394H343.064V629.574H360.042V624.394Z" fill="#E6E9F7"/>
<path d="M331.376 634.355H315.239V639.535H331.376V634.355Z" fill="#E6E9F7"/>
<path d="M360.042 634.355H343.064V639.535H360.042V634.355Z" fill="#E6E9F7"/>
<path d="M331.376 644.317H315.239V649.496H331.376V644.317Z" fill="#E6E9F7"/>
<path d="M360.042 644.317H343.064V649.496H360.042V644.317Z" fill="#E6E9F7"/>
<path d="M331.376 654.277H315.239V659.456H331.376V654.277Z" fill="#E6E9F7"/>
<path d="M360.042 654.277H343.064V659.456H360.042V654.277Z" fill="#E6E9F7"/>
<path d="M331.376 664.238H315.239V669.418H331.376V664.238Z" fill="#E6E9F7"/>
<path d="M360.042 664.238H343.064V669.418H360.042V664.238Z" fill="#E6E9F7"/>
<path d="M331.376 674.198H315.239V679.378H331.376V674.198Z" fill="#E6E9F7"/>
<path d="M360.042 674.198H343.064V679.378H360.042V674.198Z" fill="#E6E9F7"/>
<path d="M331.376 684.159H315.239V689.339H331.376V684.159Z" fill="#E6E9F7"/>
<path d="M360.042 684.159H343.064V689.339H360.042V684.159Z" fill="#E6E9F7"/>
<path d="M331.376 694.008H315.239V699.188H331.376V694.008Z" fill="#E6E9F7"/>
<path d="M360.042 694.008H343.065V699.188H360.042V694.008Z" fill="#E6E9F7"/>
<path d="M331.376 703.969H315.239V709.149H331.376V703.969Z" fill="#E6E9F7"/>
<path d="M360.042 703.969H343.065V709.149H360.042V703.969Z" fill="#E6E9F7"/>
<path d="M331.376 713.93H315.239V719.109H331.376V713.93Z" fill="#E6E9F7"/>
<path d="M360.042 713.93H343.065V719.109H360.042V713.93Z" fill="#E6E9F7"/>
<mask id="mask0_5539_16316" style="mask-type:luminance" maskUnits="userSpaceOnUse" x="211" y="591" width="116" height="162">
<path d="M211.746 752.361H326.715V591.939H211.746V752.361Z" fill="white"/>
</mask>
<g mask="url(#mask0_5539_16316)">
<path d="M214.686 602.857H311.474V614.621H214.686V602.857ZM309.87 604.461H216.29V613.016H309.869L309.87 604.461Z" fill="#423352"/>
<path d="M300.379 604.171H298.775V624.892H300.379V604.171Z" fill="#423352"/>
<path d="M289.75 604.171H288.146V613.195H289.75V604.171Z" fill="#423352"/>
<path d="M279.122 604.171H277.518V613.195H279.122V604.171Z" fill="#423352"/>
<path d="M268.495 604.171H266.89V613.195H268.495V604.171Z" fill="#423352"/>
<path d="M257.866 604.171H256.262V613.195H257.866V604.171Z" fill="#423352"/>
<path d="M247.238 604.171H245.634V613.195H247.238V604.171Z" fill="#423352"/>
<path d="M236.611 604.171H235.007V613.195H236.611V604.171Z" fill="#423352"/>
<path d="M225.982 604.171H224.378V613.195H225.982V604.171Z" fill="#423352"/>
<path d="M256.524 614.246L267.399 605.221L277.908 614.239L288.434 605.721L298.684 614.233L310.912 604.281L309.898 603.036L298.694 612.157L288.448 603.646L277.939 612.151L267.415 603.122L256.545 612.143L246.1 603.104L235.911 612.15L225.211 603.719L215.278 612.872L216.366 614.052L225.293 605.827L235.973 614.24L246.114 605.238L256.524 614.246Z" fill="#423352"/>
<path d="M246.1 614.529L256.545 605.49L267.415 614.512L277.939 605.483L288.448 613.987L298.704 605.468L309.733 614.094L310.72 612.83L298.675 603.408L288.434 611.913L277.908 603.395L267.399 612.412L256.524 603.388L246.114 612.396L235.973 603.394L225.291 611.809L216.029 603.346L214.947 604.53L225.214 613.913L235.911 605.484L246.1 614.529Z" fill="#423352"/>
<path d="M233.669 770.57L238.723 617.339H254.074L259.071 768.374L260.674 768.321L255.626 615.735H237.171L232.066 770.516L233.669 770.57Z" fill="#423352"/>
<path d="M234.904 780.136L259.63 749.337L236.022 727.689L258.416 700.777L238.174 677.724L255.854 653.69L239.813 632.912L255.421 617.1L254.279 615.974L237.686 632.782L253.846 653.713L236.117 677.813L256.306 700.806L233.811 727.838L257.44 749.503L233.653 779.131L234.904 780.136Z" fill="#423352"/>
<path d="M258.624 780.14L259.868 779.127L235.572 749.313L259.282 727.847L237.215 700.811L257.407 677.813L239.678 653.713L255.838 632.782L239.245 615.974L238.104 617.1L253.711 632.912L237.671 653.69L255.35 677.724L235.113 700.773L257.075 727.68L233.366 749.147L258.624 780.14Z" fill="#423352"/>
<path d="M255.396 632.087H237.408V633.691H255.396V632.087Z" fill="#423352"/>
<path d="M256.057 652.678L236.507 652.94L236.528 654.544L256.079 654.282L256.057 652.678Z" fill="#423352"/>
<path d="M256.255 676.796L236.267 676.984L236.282 678.588L256.27 678.4L256.255 676.796Z" fill="#423352"/>
<path d="M257.642 700.139H235.163V701.743H257.642V700.139Z" fill="#423352"/>
<path d="M236.254 616.047H256.663V601.431H236.254V616.047Z" fill="#423352"/>
<path d="M296.168 632.89H302.986V622.596H296.168V632.89Z" fill="#423352"/>
<path d="M299.182 639.863C299.347 639.863 299.513 639.844 299.675 639.806C300.532 639.604 301.17 638.888 301.427 637.844C301.895 635.936 300.516 634.63 300.009 634.224V632.628H299.211V634.636L299.388 634.754C299.456 634.8 301.077 635.927 300.653 637.653C300.467 638.407 300.055 638.896 299.491 639.029C298.97 639.153 298.398 638.954 298.033 638.526C297.802 638.254 297.469 637.659 297.851 636.736L297.114 636.431C296.717 637.392 296.83 638.344 297.426 639.043C297.871 639.567 298.525 639.863 299.182 639.863Z" fill="#423352"/>
</g>
<path d="M1243.76 482V653.832H1229.66V622.959H1174.51V650.518H1154.77V581.125H1078.83V568.815H1065.02V660.609H1044.73V625.442H984.653V752.195H1297.42V482H1243.76Z" fill="#B4BFF7" fill-opacity="0.2"/>
<path d="M1229.66 622.959H1216.4V752.195H1229.66V622.959Z" fill="#CDD4F7"/>
<path d="M1065.02 660.609H1044.39V752.195H1065.02V660.609Z" fill="#CDD4F7"/>
<path d="M994.952 625.442H984.653V752.195H994.952V625.442Z" fill="#CDD4F7"/>
<path d="M1011.43 625.442H1001.13V752.195H1011.43V625.442Z" fill="#CDD4F7"/>
<path d="M1027.91 625.442H1017.61V752.195H1027.91V625.442Z" fill="#CDD4F7"/>
<path d="M1044.39 625.442H1034.09V752.195H1044.39V625.442Z" fill="#CDD4F7"/>
<path d="M1146.66 591.773H1083.17V602.027H1146.66V591.773Z" fill="#E6E9F7"/>
<path d="M1146.66 611.491H1083.17V621.745H1146.66V611.491Z" fill="#E6E9F7"/>
<path d="M1146.66 631.21H1083.17V641.464H1146.66V631.21Z" fill="#E6E9F7"/>
<path d="M1146.66 650.928H1083.17V661.182H1146.66V650.928Z" fill="#E6E9F7"/>
<path d="M1146.66 670.647H1083.17V680.901H1146.66V670.647Z" fill="#E6E9F7"/>
<path d="M1146.66 690.366H1083.17V700.62H1146.66V690.366Z" fill="#E6E9F7"/>
<path d="M1146.66 710.084H1083.17V720.338H1146.66V710.084Z" fill="#E6E9F7"/>
<ellipse cx="700.83" cy="269.708" rx="700.83" ry="269.708" transform="matrix(-0.98868 0.150039 0.150039 0.98868 1686.79 -231.31)" fill="url(#paint1_linear_5539_16316)"/>
<rect x="601.265" y="298" width="76.4706" height="76.6922"/>
<defs>
<linearGradient id="paint0_linear_5539_16316" x1="-183" y1="-205.5" x2="657" y2="141" gradientUnits="userSpaceOnUse">
<stop stop-color="white"/>
<stop offset="1" stop-color="#E6E9F7"/>
</linearGradient>
<linearGradient id="paint1_linear_5539_16316" x1="454.871" y1="169.48" x2="894.387" y2="255.399" gradientUnits="userSpaceOnUse">
<stop stop-color="white"/>
<stop offset="1" stop-color="#E6E9F7" stop-opacity="0"/>
</linearGradient>
</defs>
</svg>
